<?xml version="1.0" standalone="no"?>
<!DOCTYPE svg PUBLIC "-//W3C//DTD SVG 20010904//EN"
 "http://www.w3.org/TR/2001/REC-SVG-20010904/DTD/svg10.dtd">
<svg version="1.0" xmlns="http://www.w3.org/2000/svg"
 width="8.000000pt" height="8.000000pt" viewBox="0 0 1280.000000 1233.000000"
 preserveAspectRatio="xMidYMid meet">
<metadata>
Created by potrace 1.15, written by Peter Selinger 2001-2017
</metadata>
<g transform="translate(0.000000,1233.000000) scale(0.100000,-0.100000)"
fill="#cc7914" stroke="none">
<path d="M6219 12315 c-653 -102 -1460 -726 -2408 -1861 -605 -724 -1291
-1708 -1823 -2614 -541 -924 -1105 -2104 -1455 -3050 -554 -1496 -675 -2568
-360 -3174 113 -218 331 -429 634 -615 113 -68 392 -204 553 -269 553 -221
1335 -410 2230 -536 545 -78 1199 -136 1975 -178 301 -16 1369 -16 1670 0
1354 73 2355 201 3235 414 889 215 1537 506 1898 853 218 209 328 408 387 700
129 637 -35 1582 -488 2805 -350 946 -914 2126 -1455 3050 -842 1434 -1929
2857 -2756 3610 -734 666 -1325 945 -1837 865z"/>
</g>
</svg>
